<svg width="400" height="300" xmlns="http://www.w3.org/2000/svg"><g fill="none" fill-rule="evenodd"><path fill="#E5ECEE" d="M0 0h400v300H0z"/><g fill="#B2C8CB"><path d="M174 121c-5.512 0-10-4.71-10-10.5s4.488-10.5 10-10.5c5.517 0 10 4.71 10 10.5s-4.483 10.5-10 10.5zm0-16c-2.755 0-5 2.467-5 5.5 0 3.03 2.245 5.5 5 5.5 2.76 0 5-2.47 5-5.5 0-3.033-2.24-5.5-5-5.5z"/><path d="M243.35 172h-86.7c-4.218 0-7.65-3.444-7.65-7.676V92.676c0-4.232 3.432-7.676 7.65-7.676h86.7c4.218 0 7.65 3.444 7.65 7.676v71.648c0 4.232-3.432 7.676-7.65 7.676zm-86.794-82A2.564 2.564 0 00154 92.567v71.866a2.564 2.564 0 002.556 2.567h86.888a2.56 2.56 0 002.556-2.567V92.567A2.56 2.56 0 00243.444 90h-86.888z"/><path d="M238.854 148.43L214.9 128.89l-18.821 14.39a2.515 2.515 0 01-3.568-.52c-.846-1.148-.617-2.779.508-3.64l20.4-15.6a2.514 2.514 0 013.123.05l25.5 20.8a2.632 2.632 0 01.397 3.656 2.53 2.53 0 01-1.991.975 2.51 2.51 0 01-1.594-.57z"/><path d="M203.805 153.458l-21.806-16.666-21.8 16.666a2.625 2.625 0 01-3.65-.447 2.523 2.523 0 01.457-3.585l23.4-17.887a2.635 2.635 0 013.192 0l23.4 17.887a2.522 2.522 0 01.452 3.585 2.614 2.614 0 01-2.052.986 2.59 2.59 0 01-1.593-.539z"/></g><text font-family="Arial-BoldMT, Arial" font-size="20" font-weight="bold" fill="#B2C8CB"><tspan x="109.961" y="201">No image available</tspan></text></g></svg>